<?xml version="1.0" encoding="utf-8"?>
<svg version="1.1" id="Layer_1" xmlns="http://www.w3.org/2000/svg" xmlns:xlink="http://www.w3.org/1999/xlink" x="0px" y="0px"
	 viewBox="0 0 92.4 92.4" style="enable-background:new 0 0 92.4 92.4;" xml:space="preserve">
<path fill="#d84400" d="M80.4,0 H12 C5.4,0,0,5.4,0,12v68.4c0,6.6,5.4,12,12,12h68.4c6.6,0,12-5.4,12-12 V12 C92.4,5.4,87,0,80.4,0z"/>
<path fill="#fff" d="M41.7,62.4c-0.7,1.5-1.6,2.9-2.8,4c-1.2,1.2-2.6,2.1-4.1,2.7c-1.6,0.7-3.3,1-5.1,1H4.1v-48H27c1.7,0,3.3,0.3,4.8,0.9 s2.8,1.5,3.9,2.6c1.1,1.1,2,2.4,2.7,3.8c0.7,1.5,1,3,1,4.7c0,0.8-0.1,1.8-0.4,2.8c-0.2,1-0.7,2-1.2,3c-0.6,1-1.3,2-2.2,2.9 c-0.9,0.9-2,1.6-3.4,2.2c1.8,0.4,3.4,1.1,4.8,2c1.3,0.9,2.4,1.9,3.3,3c0.8,1.1,1.5,2.3,1.9,3.6c0.4,1.3,0.6,2.5,0.6,3.7 C42.7,59.3,42.4,60.9,41.7,62.4z M86.9,55.8c-1.3,3-3.1,5.7-5.3,7.9c-2.3,2.3-4.9,4.1-7.9,5.4c-3,1.3-6.2,2-9.6,2 c-3.4,0-6.7-0.7-9.7-2c-1.5-0.7-2.9-1.5-4.3-2.4c1.7-1,3.3-2.2,4.7-3.6c2.2-2.2,3.9-4.7,5.2-7.7c1.3-2.9,1.9-6,1.9-9.4 c0-3.3-0.6-6.4-1.9-9.3c-1.3-2.9-3-5.5-5.2-7.6c-1.4-1.4-3-2.6-4.7-3.6c1.3-0.9,2.8-1.7,4.3-2.4c3-1.3,6.3-1.9,9.7-1.9 c3.4,0,6.6,0.6,9.6,1.9c3,1.3,5.7,3.1,7.9,5.3 L64,46.2h24.9 C88.9,49.6,88.2,52.8,86.9,55.8z"/>
</svg>
